<svg width="264.56000366210935px" height="122.75999755859375px" xmlns="http://www.w3.org/2000/svg" viewBox="117.71999816894532 13.620001220703124 264.56000366210935 122.75999755859375" style="background: rgba(0, 0, 0, 0) none repeat scroll 0% 0%;" preserveAspectRatio="xMidYMid"><defs><filter id="editing-offset"><feFlood flood-color="#f00" flood-opacity="0.5" result="c1"></feFlood><feFlood flood-color="#0f0" flood-opacity="0.5" result="c2"></feFlood><feFlood flood-color="#00f" flood-opacity="0.5" result="c3"></feFlood><feComposite operator="in" in="c1" in2="SourceAlpha" result="text-c1"></feComposite><feComposite operator="in" in="c2" in2="SourceAlpha" result="text-c2"></feComposite><feComposite operator="in" in="c3" in2="SourceAlpha" result="text-c3"></feComposite><feOffset in="text-c1" dx="-10" dy="0" result="text1"></feOffset><feOffset in="text-c2" dx="10" dy="0" result="text2"></feOffset><feOffset in="text-c3" dx="0" dy="0" result="text3"></feOffset><feMerge><feMergeNode in="text1"></feMergeNode><feMergeNode in="text2"></feMergeNode><feMergeNode in="text3"></feMergeNode></feMerge></filter></defs><g filter="url(#editing-offset)"><g transform="translate(159.6953125, 103.76952743530273)"><path d="M7.23 0.83L8.64-3.84L8.64-3.84Q10.88-2.62 14.21-2.62L14.21-2.62L14.21-2.62Q17.54-2.62 20.32-4.64L20.32-4.64L20.32-4.64Q23.10-6.66 25.09-10.37L25.09-10.37L25.09-10.37Q29.18-18.24 29.18-30.91L29.18-30.91L29.18-30.91Q29.18-38.98 25.54-38.98L25.54-38.98L25.54-38.98Q23.62-38.98 21.76-36.86L21.76-36.86L21.76-36.86Q19.90-34.75 18.43-31.36L18.43-31.36L18.43-31.36Q15.23-23.62 15.23-14.53L15.23-14.53L15.23-14.53Q15.23-12.67 16.13-11.55L16.13-11.55L16.13-11.55Q17.02-10.43 18.62-10.43L18.62-10.43L18.62-10.43Q18.37-8.45 16.64-7.04L16.64-7.04L16.64-7.04Q14.91-5.63 12.74-5.63L12.74-5.63L12.74-5.63Q7.55-5.63 4.90-8.86L4.90-8.86L4.90-8.86Q2.24-12.10 2.24-17.95L2.24-17.95L2.24-17.95Q2.24-23.81 4.03-28.42L4.03-28.42L4.03-28.42Q5.82-33.02 8.96-36.38L8.96-36.38L8.96-36.38Q12.10-39.74 16.42-41.66L16.42-41.66L16.42-41.66Q20.74-43.58 25.86-43.58L25.86-43.58L25.86-43.58Q43.01-43.58 43.01-26.88L43.01-26.88L43.01-26.88Q43.01-14.85 37.25-7.49L37.25-7.49L37.25-7.49Q31.49-0.06 21.50 0.83L21.50 0.83L21.50 0.83Q27.39 2.11 33.34 2.11L33.34 2.11L33.34 2.11Q38.02 2.11 41.47 0.13L41.47 0.13L41.47 0.13Q42.43-0.45 42.82-1.09L42.82-1.09L42.82-1.09Q44.74 0.64 44.74 4.06L44.74 4.06L44.74 4.06Q44.74 7.49 41.70 9.47L41.70 9.47L41.70 9.47Q38.66 11.46 32.74 11.46L32.74 11.46L32.74 11.46Q26.82 11.46 19.97 8.70L19.97 8.70L19.97 8.70Q13.12 5.95 7.23 0.83L7.23 0.83ZM48.86-1.92L48.86-1.92L48.86-1.92Q47.36-3.58 46.69-6.21L46.69-6.21L46.69-6.21Q46.02-8.83 46.02-13.12L46.02-13.12L46.02-13.12Q46.02-17.41 47.49-21.31L47.49-21.31L47.49-21.31Q48.96-25.22 51.65-28.03L51.65-28.03L51.65-28.03Q57.15-33.92 66.24-33.92L66.24-33.92L66.24-33.92Q69.50-33.92 71.87-32.83L71.87-32.83L82.82-33.92L78.08-8.96L78.08-8.96Q77.89-8.19 77.89-6.78L77.89-6.78L77.89-6.78Q77.89-5.38 78.75-4.48L78.75-4.48L78.75-4.48Q79.62-3.58 80.90-3.46L80.90-3.46L80.90-3.46Q80.26-1.28 77.92 0L77.92 0L77.92 0Q75.58 1.28 72.96 1.28L72.96 1.28L72.96 1.28Q70.34 1.28 68.58 0.29L68.58 0.29L68.58 0.29Q66.82-0.70 66.30-2.37L66.30-2.37L66.30-2.37Q65.28-0.77 63.10 0.26L63.10 0.26L63.10 0.26Q60.93 1.28 58.02 1.28L58.02 1.28L58.02 1.28Q55.10 1.28 52.74 0.51L52.74 0.51L52.74 0.51Q50.37-0.26 48.86-1.92ZM62.37-27.90L62.37-27.90L62.37-27.90Q61.63-26.75 60.99-24.80L60.99-24.80L60.99-24.80Q60.35-22.85 59.30-17.63L59.30-17.63L59.30-17.63Q58.24-12.42 58.24-8.70L58.24-8.70L58.24-8.70Q58.24-4.99 58.82-3.90L58.82-3.90L58.82-3.90Q59.39-2.82 60.42-2.82L60.42-2.82L60.42-2.82Q62.46-2.82 63.97-4.77L63.97-4.77L63.97-4.77Q65.47-6.72 66.05-10.18L66.05-10.18L69.44-28.93L69.44-28.93Q68.10-30.08 66.53-30.08L66.53-30.08L66.53-30.08Q64.96-30.08 64.03-29.57L64.03-29.57L64.03-29.57Q63.10-29.06 62.37-27.90ZM88.80-1.92L88.80-1.92L88.80-1.92Q87.30-3.58 86.62-6.21L86.62-6.21L86.62-6.21Q85.95-8.83 85.95-13.12L85.95-13.12L85.95-13.12Q85.95-17.41 87.42-21.31L87.42-21.31L87.42-21.31Q88.90-25.22 91.58-28.03L91.58-28.03L91.58-28.03Q97.09-33.92 106.18-33.92L106.18-33.92L106.18-33.92Q109.44-33.92 111.81-32.83L111.81-32.83L122.75-33.92L118.02-8.96L118.02-8.96Q117.82-8.19 117.82-6.78L117.82-6.78L117.82-6.78Q117.82-5.38 118.69-4.48L118.69-4.48L118.69-4.48Q119.55-3.58 120.83-3.46L120.83-3.46L120.83-3.46Q120.19-1.28 117.86 0L117.86 0L117.86 0Q115.52 1.28 112.90 1.28L112.90 1.28L112.90 1.28Q110.27 1.28 108.51 0.29L108.51 0.29L108.51 0.29Q106.75-0.70 106.24-2.37L106.24-2.37L106.24-2.37Q105.22-0.77 103.04 0.26L103.04 0.26L103.04 0.26Q100.86 1.28 97.95 1.28L97.95 1.28L97.95 1.28Q95.04 1.28 92.67 0.51L92.67 0.51L92.67 0.51Q90.30-0.26 88.80-1.92ZM102.30-27.90L102.30-27.90L102.30-27.90Q101.57-26.75 100.93-24.80L100.93-24.80L100.93-24.80Q100.29-22.85 99.23-17.63L99.23-17.63L99.23-17.63Q98.18-12.42 98.18-8.70L98.18-8.70L98.18-8.70Q98.18-4.99 98.75-3.90L98.75-3.90L98.75-3.90Q99.33-2.82 100.35-2.82L100.35-2.82L100.35-2.82Q102.40-2.82 103.90-4.77L103.90-4.77L103.90-4.77Q105.41-6.72 105.98-10.18L105.98-10.18L109.38-28.93L109.38-28.93Q108.03-30.08 106.46-30.08L106.46-30.08L106.46-30.08Q104.90-30.08 103.97-29.57L103.97-29.57L103.97-29.57Q103.04-29.06 102.30-27.90ZM141.50-3.52L141.50-3.52L141.50-3.52Q139.52 1.28 133.18 1.28L133.18 1.28L133.18 1.28Q129.98 1.28 127.94-0.96L127.94-0.96L127.94-0.96Q126.27-2.82 126.27-4.93L126.27-4.93L126.27-4.93Q126.27-9.73 128.51-20.22L128.51-20.22L133.18-44.80L146.18-46.08L139.97-13.70L139.97-13.70Q138.88-8.96 138.88-7.30L138.88-7.30L138.88-7.30Q138.88-3.65 141.50-3.52ZM178.37-26.62L178.37-26.62L178.37-26.62Q178.37-23.94 176.13-22.27L176.13-22.27L176.13-22.27Q173.89-20.61 170.24-20.61L170.24-20.61L170.24-20.61Q168.70-20.61 167.81-21.06L167.81-21.06L167.81-21.06Q168.51-22.72 168.74-24.80L168.74-24.80L168.74-24.80Q168.96-26.88 168.96-27.46L168.96-27.46L168.96-27.46Q168.96-30.14 167.10-30.14L167.10-30.14L167.10-30.14Q165.82-30.14 164.38-28.54L164.38-28.54L164.38-28.54Q162.94-26.94 161.73-24.45L161.73-24.45L161.73-24.45Q159.04-18.69 159.04-12.86L159.04-12.86L159.04-12.86Q159.04-9.66 160.26-8.22L160.26-8.22L160.26-8.22Q161.47-6.78 164.16-6.78L164.16-6.78L164.16-6.78Q167.87-6.78 170.82-9.86L170.82-9.86L170.82-9.86Q171.65-10.82 172.10-11.90L172.10-11.90L172.10-11.90Q174.53-10.62 174.53-7.10L174.53-7.10L174.53-7.10Q174.53-3.52 170.56-1.15L170.56-1.15L170.56-1.15Q166.46 1.28 159.94 1.28L159.94 1.28L159.94 1.28Q146.94 1.28 146.94-12.48L146.94-12.48L146.94-12.48Q146.94-22.53 152.64-28.29L152.64-28.29L152.64-28.29Q158.14-33.92 168.26-33.92L168.26-33.92L168.26-33.92Q178.37-33.92 178.37-26.62Z"></path></g></g><style>text {
  font-size: 64px;
  font-family: Arial Black;
  dominant-baseline: central;
  text-anchor: middle;
}</style></svg>